<?xml version="1.0" standalone="no"?><!DOCTYPE svg PUBLIC "-//W3C//DTD SVG 1.1//EN" "http://www.w3.org/Graphics/SVG/1.1/DTD/svg11.dtd"><svg t="1621775080443" class="icon" viewBox="0 0 1024 1024" version="1.1" xmlns="http://www.w3.org/2000/svg" p-id="3774" xmlns:xlink="http://www.w3.org/1999/xlink" width="200" height="200"><defs><style type="text/css"></style></defs><path d="M287.58016 208.00512l263.68 0c51.7632 0 93.06112 14.03904 123.86304 42.10688 30.79168 28.06784 46.19264 64.45056 46.19264 109.14816 0 26.97216-6.74816 51.57888-20.23424 73.78944-13.49632 22.21056-33.59744 39.44448-60.3136 51.70176 37.48864 14.17216 51.53792 32.98304 69.1712 56.4224 17.64352 23.43936 26.48064 53.54496 26.48064 90.33728 0 51.78368-18.69824 94.30016-56.064 127.54944-37.36576 33.24928-73.22624 49.8688-134.59456 49.8688L287.58016 808.92928 287.58016 208.00512zM381.21472 462.27456l134.06208 0c43.06944 0 63.36512-7.8336 83.39456-23.51104 20.0192-15.6672 30.04416-40.12032 30.04416-73.37984 0-28.6208-9.48224-50.41152-28.416-65.40288-18.944-14.98112-39.49568-22.48704-84.18304-22.48704L381.21472 277.49376 381.21472 462.27456zM381.21472 739.42016l159.82592 0c42.50624 0 58.63424-9.8816 79.89248-29.6448 21.248-19.75296 31.86688-46.39744 31.86688-79.91296 0-34.06848-11.83744-59.48416-35.55328-76.2368-23.71584-16.76288-42.96704-25.1392-89.30304-25.1392l-146.7392 0L381.20448 739.42016z" p-id="3775"></path></svg>