<?xml version="1.0" standalone="no"?><!DOCTYPE svg PUBLIC "-//W3C//DTD SVG 1.1//EN" "http://www.w3.org/Graphics/SVG/1.1/DTD/svg11.dtd"><svg t="1622729277007" class="icon" viewBox="0 0 1024 1024" version="1.1" xmlns="http://www.w3.org/2000/svg" p-id="3349" xmlns:xlink="http://www.w3.org/1999/xlink" width="200" height="200"><defs><style type="text/css"></style></defs><path d="M292.571611 450.377143a36.571429 36.571429 0 0 1-25.782857-11.52l-133.851428-132.937143a36.571429 36.571429 0 0 1 0-51.748571l133.851428-133.668572a36.571429 36.571429 0 0 1 51.565715 51.565714l-107.885715 107.885715 107.885715 107.885714A36.571429 36.571429 0 0 1 292.571611 450.377143zM725.760183 914.285714a36.571429 36.571429 0 0 1-25.965714-62.354285l107.885714-107.885715-107.885714-107.885714A36.571429 36.571429 0 0 1 751.54304 585.142857l133.668571 133.668572a36.571429 36.571429 0 0 1 0 51.748571l-133.668571 132.937143a36.571429 36.571429 0 0 1-25.782857 10.788571z" p-id="3350"></path><path d="M786.285897 783.36H274.285897a274.285714 274.285714 0 0 1-274.285714-274.285714 309.76 309.76 0 0 1 49.188571-167.862857 36.571429 36.571429 0 0 1 61.622857 39.497142 236.617143 236.617143 0 0 0-37.668571 128 201.142857 201.142857 0 0 0 201.142857 201.142858h512a36.571429 36.571429 0 0 1 0 73.142857zM941.897326 697.051429a36.571429 36.571429 0 0 1-20.297143-6.034286 36.571429 36.571429 0 0 1-10.24-51.017143A237.714286 237.714286 0 0 0 950.857326 509.074286a201.142857 201.142857 0 0 0-201.142857-201.142857H219.428754a36.571429 36.571429 0 0 1 0-73.142858h530.285715a274.285714 274.285714 0 0 1 274.285714 274.285715 309.394286 309.394286 0 0 1-51.748572 171.702857 36.571429 36.571429 0 0 1-30.354285 16.274286z" p-id="3351"></path></svg>