<?xml version="1.0" standalone="no"?><!DOCTYPE svg PUBLIC "-//W3C//DTD SVG 1.1//EN" "http://www.w3.org/Graphics/SVG/1.1/DTD/svg11.dtd"><svg t="1622729248678" class="icon" viewBox="0 0 1024 1024" version="1.1" xmlns="http://www.w3.org/2000/svg" p-id="3217" xmlns:xlink="http://www.w3.org/1999/xlink" width="200" height="200"><defs><style type="text/css"></style></defs><path d="M87.552 147.84h96.256v65.536H87.552zM282.112 147.84v65.536h432.768c18.176 0 32.768 14.72 32.768 32.768v627.328h65.536V217.088c0-38.272-30.976-69.248-69.248-69.248H282.112z" p-id="3218"></path><path d="M717.952 742.528H293.888c-16.128 0-29.056-13.056-29.056-29.056V96.896c0-8.064-6.528-14.592-14.592-14.592H213.76c-8.064 0-14.592 6.528-14.592 14.592v647.424a63.616 63.616 0 0 0 63.616 63.616h455.04c8.064 0 14.592-6.528 14.592-14.592v-36.352c0-7.936-6.528-14.464-14.464-14.464zM825.216 742.528h99.584v65.536h-99.584z" p-id="3219"></path></svg>